<?xml version="1.0" ?><!DOCTYPE svg  PUBLIC '-//W3C//DTD SVG 1.1//EN'  'http://www.w3.org/Graphics/SVG/1.1/DTD/svg11.dtd'><svg enable-background="new 0 0 512 512" id="Layer_1" version="1.1" viewBox="0 0 512 512" xml:space="preserve" xmlns="http://www.w3.org/2000/svg" xmlns:xlink="http://www.w3.org/1999/xlink"><g><circle cx="256" cy="256" fill="#AF0606" r="256"/><g><path d="M229.4,289.4c4.1-1,6.8-4.8,7-9.7c0.3-4.9-2.3-9.3-6.4-10.9c0,0-11.4-4.7-11.5-4.7    c-39.2-16.4-41-17.1-43-17.1c-3-0.1-5.7,1.4-7.6,4.4c-4,6.4-5.6,26.7-4.3,40.1c0.5,4.4,1.3,8.1,2.4,10.4c1.6,3,4.2,4.9,7.3,5    c1.9,0.1,3.2-0.2,39.7-12.2C213.1,294.7,229.4,289.5,229.4,289.4z" fill="#FFFFFF"/><path d="M249.9,304.6c-4.6-1.8-9.4-0.7-12.2,2.8c0,0-8,9.7-8,9.7c-27.5,32.8-28.6,34.3-29.3,36.3    c-0.4,1.2-0.6,2.4-0.4,3.6c0.2,1.7,0.9,3.5,2.2,5.1c6.4,7.7,36.9,19.1,46.7,17.4c3.4-0.6,5.9-2.6,6.9-5.5    c0.6-1.9,0.7-3.2,0.8-42.1c0,0,0.1-17.2,0.1-17.4C257,310.2,254.3,306.4,249.9,304.6z" fill="#FFFFFF"/><path d="M286.8,271.3c0,0-0.2,0.3-0.2,0.4c2-0.8,5.7-1.7,12.4-3.3c41.5-10.2,43.1-10.8,44.7-11.8    c2.5-1.7,3.8-4.6,3.6-8.1c0-0.1,0-0.2,0-0.4c-1.1-10.3-18.9-37.3-27.7-41.6c-3.1-1.5-6.2-1.4-8.8,0.3c-1.6,1.1-2.8,2.7-25,33.5    c0,0-10,13.9-10.2,14c-2.7,3.3-2.7,8-0.1,12C278.2,270.4,282.7,272.5,286.8,271.3z" fill="#FFFFFF"/><path d="M251.1,139c-0.9-3.1-3.2-5.3-6.7-6.2c-10.6-2.7-51,8.9-58.5,16.7c-2.4,2.5-3.3,5.7-2.6,8.5    c1.2,2.5,51.3,82.6,51.3,82.6c7.4,12.2,13.5,10.3,15.4,9.7c2-0.6,8-2.5,7.3-16.8C256.6,216.9,251.7,142.5,251.1,139z" fill="#FFFFFF"/><path d="M306.4,298.5c0,0-16-5.4-16.2-5.5c-3.9-1.5-8.3-0.1-11.3,3.6c-3.1,3.8-3.5,8.9-1.1,12.7l6.5,10.7    c21.7,35.8,23.3,38.3,24.9,39.5c2.4,1.9,5.5,2.3,8.7,0.9c9.2-3.7,29.3-29.7,30.7-39.7c0.5-3.5-0.6-6.5-2.9-8.4    C344.1,311.1,342.9,310.6,306.4,298.5z" fill="#FFFFFF"/></g></g></svg>